# xmcd CD database file
#
# Track frame offsets:
#	150
#	18985
#	39197
#	58062
#
# Disc length: 1041 seconds
#
# Revision: 0
# Processed by: cddbd v1.5.1PL0 Copyright (c) Steve Scherf et al.
# Submitted via: CDex 1.51
#
DISCID=27040f04
DTITLE=LINDBERG - さよならをあげる
DYEAR=1995
DGENRE=Pop
TTITLE0=さよならをあげる
TTITLE1=上を向いていた方がいい
TTITLE2=さよならをあげる（オリジナル・カラオケ）
TTITLE3=上を向いていた方がいい（オリジナル・カラオケ）
EXTD=YEAR: 1995
EXTT0=
EXTT1=
EXTT2=
EXTT3=
PLAYORDER=
